PathFileType	4	(X/Y/Z)	69_2_28_p1_0-552_filt_butterworth.trc
DataRate	CameraRate	NumFrames	NumMarkers	Units	OrigDataRate	OrigDataStartFrame	OrigNumFrames
46.0	46.0	4	27	m	46.0	0	552
Frame#	Time	RHip			RKnee			RAnkle			RBigToe			RSmallToe			RHeel			LHip			LKnee			LAnkle			LBigToe			LSmallToe			LHeel			Neck			Head			Nose			RShoulder			RElbow			RWrist			RThumb			RIndex			RPinky			LShoulder			LElbow			LWrist			LThumb			LIndex			LPinky			
		X1	Y1	Z1	X2	Y2	Z2	X3	Y3	Z3	X4	Y4	Z4	X5	Y5	Z5	X6	Y6	Z6	X7	Y7	Z7	X8	Y8	Z8	X9	Y9	Z9	X10	Y10	Z10	X11	Y11	Z11	X12	Y12	Z12	X13	Y13	Z13	X14	Y14	Z14	X15	Y15	Z15	X16	Y16	Z16	X17	Y17	Z17	X18	Y18	Z18	X19	Y19	Z19	X20	Y20	Z20	X21	Y21	Z21	X22	Y22	Z22	X23	Y23	Z23	X24	Y24	Z24	X25	Y25	Z25	X26	Y26	Z26	X27	Y27	Z27	
0	0.0	0.29053612835576526	0.5609505340915828	0.5753905115051292	0.26465185931803925	0.5733061902857679	0.9383700050653265	0.21796380235421767	0.600625744149919	1.338678647028815	0.26622858342933453	0.3781250757217532	1.2993201100973804	0.3162863853725872	0.4274613069302772	1.3061192809077538	0.15584138779267848	0.7235988596541163	1.4284500786632839	0.06785812671624239	0.5038859050775422	0.5969711606612471	0.038084102756135566	0.5405534329698979	0.9545438311063011	0.022061317519293647	0.5685384085486908	1.3496629210516984	0.1294635964298393	0.34939526975348173	1.2905441492985692	0.07713884068446127	0.3766787956213814	1.3073173830968747	0.013946304038414495	0.6038295343043062	1.409555468448822	0.20858334123677758	0.5244383008725391	-0.0002684249047858649	0.2508779710159847	0.48425946179549983	-0.24901119865990362	0.2552753220746522	0.4512984783695594	-0.11636523710929991	0.35616628280973783	0.5530047229041961	0.10917896926029957	0.394998889753492	0.5042428285737721	0.35442503730721797	0.3049293895366467	0.35134273895897783	0.5247335875047818	0.2237982346839796	0.3466384387299545	0.6044941258219241	0.21895337055992684	0.36371326661685754	0.6505277165033467	0.21704307227285186	0.3782345346287153	0.6635149565241971	0.05915843398563687	0.4447268171073828	0.09285352953684703	0.05569532586506536	0.3891518640421726	0.3233001041366896	0.22323709486352578	0.29069017232402383	0.506756861277705	0.28909935345780424	0.3390247901278194	0.5740305743604319	0.2765401299218394	0.3597774369319232	0.6141876170018796	0.22393516950541803	0.37976361563341415	0.6592069423368593
1	0.0217391304347826	0.28718879002245074	0.5640250036610578	0.5707375048616115	0.2638060076978122	0.5717730115467856	0.937319088951439	0.2188994060942038	0.5956171931447806	1.3293545381596403	0.2641186500478337	0.37570696223470224	1.295298956337286	0.3131487648062496	0.4360146754392317	1.3115797841482482	0.1561648771968415	0.7228869161237963	1.4280711087439193	0.0613299605726258	0.5110322563775748	0.592689354175947	0.03945415962820481	0.5296845338266871	0.9482976609906141	0.024764163168210687	0.557809583564998	1.3405643359965718	0.12314228882482114	0.3584566331783604	1.3026446153689604	0.0670425555204501	0.3893906589870673	1.3141313750594366	0.012603498150869637	0.6007258405623578	1.406896114386513	0.21486292025497322	0.5164741049881922	-0.0014171455883054173	0.250822599298091	0.4842821704046039	-0.2491228228612275	0.25534041267987595	0.45135909918555905	-0.11886340721657909	0.3561670752100604	0.5530762008224428	0.10915466650384106	0.3952339526644768	0.5036528517893568	0.35617594309651224	0.29859573504195147	0.36284205997377683	0.5300580148733925	0.2170688998564655	0.3613258288095871	0.6076830918397749	0.21217649325506516	0.36762986316381885	0.6483771858615245	0.21627564453717402	0.38158440430990126	0.6612867039589376	0.05857069955073351	0.4495571857183133	0.09211399998999173	0.055853519256366446	0.38932544480131537	0.3217580799308649	0.2182152696649383	0.2965947692132875	0.5028882586628226	0.27723608695259083	0.35372395856441935	0.5802925084406814	0.26585864586275415	0.37112343321463825	0.6202983697937245	0.2235942458008669	0.3784271607181761	0.6535252661167795
2	0.0434782608695652	0.289146350130563	0.5621385454641359	0.5661214454389415	0.26335964340408613	0.5746826036527061	0.9375597657096647	0.21897255810949678	0.5969977749484735	1.3269462066664595	0.26278823110660876	0.3754108766244757	1.2958153120431768	0.3113113512293745	0.4434998546196657	1.3160625446648428	0.15632047767474538	0.7224486240688475	1.427759228097976	0.05841920469887863	0.5142205814200562	0.5907531986455463	0.0401115768416904	0.5239525031210251	0.943849587157057	0.025985942759239242	0.5534570670721177	1.338112776200362	0.12012729130867318	0.36276447270383005	1.3083138823388918	0.060148143307317166	0.39809301683107	1.318619095569114	0.012632572955703143	0.5968413253082383	1.4033645308233176	0.21775531085572547	0.5127890049432313	-0.0019049676882632375	0.2508015561893029	0.4843023342500914	-0.24920463877695126	0.25539218871705466	0.45138314823275133	-0.1200251033814679	0.35618418737993396	0.5531024808756351	0.10916135158511493	0.3953348223680004	0.5033140256564532	0.35728396333221	0.2951772961855648	0.3725392217197646	0.5353982425097081	0.21207407792430566	0.3668124201445949	0.6078801289788245	0.20672089554866246	0.36811285280080946	0.6454346789926992	0.2157055775053774	0.3815147757029973	0.659941509493911	0.058612234452821724	0.44880279452023303	0.09036328773038016	0.05594717018541405	0.3893936253254693	0.32082583769934836	0.21037159735217667	0.3051451103586901	0.5055503943915401	0.26823832087064375	0.36295445120009273	0.584926161750907	0.25846842737579895	0.3792932132912692	0.6252088716242677	0.22112740184819085	0.380960397393795	0.6519037871843033
3	0.0652173913043478	0.2934785305624775	0.5600044121568952	0.5645547986910116	0.262995442975083	0.5821420481120675	0.9399462961702902	0.21860836634658234	0.6010645996961399	1.3287602411342418	0.2620934448406289	0.37671130338239395	1.299847069311952	0.3107688849392159	0.44907766490732964	1.319176294028552	0.1562929810784833	0.7222997151883873	1.4274694447462724	0.05834474367889404	0.5140401872033539	0.5908579697978931	0.04017413189950664	0.5229847637959143	0.9423821695812722	0.02600183924417426	0.554291575075097	1.3408934121012925	0.1199622615960938	0.36300327599333426	1.3084982964600447	0.05728990256326493	0.40134985214060415	1.3211487916308575	0.013930644771712006	0.5927803062104817	1.3990871632911068	0.21781261447523606	0.5126747908855225	-0.0017960565684267595	0.25079384265560684	0.4843498775251562	-0.24924786155706233	0.25541088464152395	0.4513826306773514	-0.12006559592929639	0.3562215291763234	0.5531130642580685	0.10919725643284318	0.39532704579133154	0.5031970823886767	0.3578906025847217	0.29453573102250374	0.37912099271082667	0.539204788681902	0.20941462579396752	0.36352001222755137	0.6051614869749289	0.20250297964616615	0.36658547545506415	0.641684114409192	0.21439029087635392	0.3819341864816082	0.6602051718818756	0.05895947155284266	0.4455552223450111	0.08911140513104068	0.056063724933313186	0.38934532945631833	0.32025703665822547	0.19907279890091925	0.3163488381030387	0.5126804568641925	0.26306748931275625	0.3661187659260785	0.5863349810011215	0.2554123654843242	0.3819476546407824	0.6273253221656987	0.2171315121642076	0.38533608469231534	0.6531428245678854
